<?xml version="1.0" encoding="utf-8"?>
<svg width="${size}" height="${size}" viewBox="0 0 72 72" fill="none" xmlns="http://www.w3.org/2000/svg">
  <g clip-path="url(#clip0)">
    <path d="M8.34277 63.1889L12.3302 48.51C9.87021 44.214 8.57656 39.3401 8.57811 34.3484C8.58456 18.7297 21.1925 6.02283 36.6838 6.02283C44.2025 6.02625 51.2592 8.97631 56.5649 14.3306C61.8717 19.6848 64.7925 26.8017 64.7894 34.3705C64.783 49.9896 52.1742 62.6976 36.6849 62.6976C36.6838 62.6976 36.6857 62.6976 36.6849 62.6976H36.6724C31.9688 62.696 27.347 61.5056 23.2422 59.2501L8.34277 63.1889Z" fill="url(#paint0_linear)"/>
    <path fill-rule="evenodd" clip-rule="evenodd" d="M 28.717 20.872 C 28.12 19.534 27.491 19.507 26.923 19.484 C 26.458 19.464 25.926 19.465 25.395 19.465 C 24.864 19.465 24 19.666 23.27 20.471 C 22.539 21.275 20.48 23.219 20.48 27.172 C 20.48 31.126 23.336 34.947 23.735 35.484 C 24.133 36.019 29.249 44.392 37.351 47.613 C 44.084 50.29 45.454 49.758 46.915 49.624 C 48.377 49.49 51.631 47.68 52.295 45.804 C 52.96 43.928 52.96 42.319 52.761 41.983 C 52.561 41.648 52.03 41.447 51.233 41.045 C 50.435 40.644 46.517 38.699 45.786 38.431 C 45.055 38.163 44.524 38.03 43.992 38.834 C 43.461 39.638 41.934 41.447 41.469 41.983 C 41.004 42.52 40.539 42.587 39.742 42.185 C 38.945 41.782 36.378 40.935 33.332 38.197 C 30.963 36.067 29.363 33.437 28.898 32.632 C 28.433 31.828 28.848 31.393 29.248 30.992 C 29.606 30.632 30.045 30.054 30.444 29.585 C 30.842 29.116 30.974 28.781 31.24 28.245 C 31.506 27.708 31.373 27.239 31.174 26.837 C 30.974 26.435 29.425 22.461 28.717 20.872 Z" fill="white" style=""/>
  </g>
  <defs>
    <linearGradient id="paint0_linear" x1="36.5661" y1="63.1889" x2="36.5661" y2="6.02292" gradientUnits="userSpaceOnUse">
      <stop stop-color="#20B038"/>
      <stop offset="1" stop-color="#60D66A"/>
    </linearGradient>
    <clipPath id="clip0">
      <rect width="59.1549" height="59.9037" fill="white" transform="translate(6.98877 4.99194)"/>
    </clipPath>
  </defs>
</svg>